#!OML:ASF X:\für Bonn\!DataBase\2005_08_12_Daniel\c3d\Daniel.ASF
:FULLY-SPECIFIED
:DEGREES
47
root 1.83416 17.2484 -16.9247 350.282 1.76693 -1.24027
lowerback 29.7451 1.63782 -2.97623
upperback 11.4979 1.04123 -3.86789
thorax -3.3554 0.541312 -2.89108
lowerneck 6.0026 3.80036 -0.0138537
upperneck 21.1947 5.89164 -4.42283
head 5.56717 2.59113 -1.22316
rclavicle -7.95139e-016 9.54166e-015
rhumerus -2.3982 2.81205 -97.6677
rradius 16.5107
rwrist 20.8649
rhand -13.1836 16.7585
rfingers 7.12502
rthumb 12.9162 -12.8218
lclavicle -7.95139e-016 9.54166e-015
lhumerus -24.1297 13.2517 80.5158
lradius 42.9903
lwrist -7.74341
lhand -13.0459 -6.7354
lfingers 7.12502
lthumb 13.049 22.8364
rfemur -18.7872 -18.5854 15.5399
rtibia 60.6852
rfoot -7.2561 -351.462
rtoes -12.3689
lfemur -19.5781 3.3489 -20.5234
ltibia 43.496
lfoot -11.9878 -7.89318
ltoes -4.29915
48
root 1.82169 17.2502 -16.8681 350.356 2.14815 -1.25733
lowerback 30.0031 1.63757 -2.98797
upperback 11.6743 1.03696 -3.86769
thorax -3.27212 0.541553 -2.88795
lowerneck 6.07941 3.76189 -0.0763651
upperneck 20.9993 5.81999 -4.37077
head 5.48766 2.56111 -1.20122
rclavicle -1.82882e-014 -3.18055e-015
rhumerus -2.22317 3.58915 -97.6682
rradius 16.6829
rwrist 20.3318
rhand -13.3884 16.7221
rfingers 7.12502
rthumb 12.7188 -12.8705
lclavicle -1.82882e-014 -3.18055e-015
lhumerus -23.7 12.1004 80.7776
lradius 44.7443
lwrist -6.56605
lhand -13.0093 -7.0307
lfingers 7.12502
lthumb 13.0842 22.5389
rfemur -19.0247 -18.7606 15.7591
rtibia 59.3751
rfoot -7.86653 -352.145
rtoes -12.8995
lfemur -19.6281 3.41803 -20.4992
ltibia 43.7062
lfoot -12.0902 -8.33441
ltoes -4.22801
49
root 1.80847 17.25 -16.8119 350.445 2.55851 -1.23258
lowerback 30.2525 1.6373 -3.02364
upperback 11.8456 1.02577 -3.88701
thorax -3.18969 0.538559 -2.89045
lowerneck 6.11121 3.71275 -0.130192
upperneck 20.8321 5.73366 -4.29808
head 5.42386 2.52451 -1.17345
rclavicle 7.95139e-015 3.65764e-014
rhumerus -2.04316 4.28255 -97.6801
rradius 16.8465
rwrist 19.8403
rhand -13.6208 16.6009
rfingers 7.12502
rthumb 12.4947 -13.0055
lclavicle 7.95139e-015 3.65764e-014
lhumerus -23.2911 10.8988 80.9863
lradius 46.5094
lwrist -5.33724
lhand -12.9461 -7.29142
lfingers 7.12502
lthumb 13.1452 22.2742
rfemur -19.2403 -18.8914 15.9164
rtibia 58.0943
rfoot -8.47313 -352.861
rtoes -13.3519
lfemur -19.7026 3.51969 -20.527
ltibia 43.9062
lfoot -12.1917 -8.83099
ltoes -4.11025
50
root 1.79376 17.2505 -16.7573 350.509 2.9661 -1.19366
lowerback 30.5476 1.66508 -3.06451
upperback 12.0173 1.04711 -3.89115
thorax -3.12578 0.551216 -2.88495
lowerneck 6.11154 3.63857 -0.231954
upperneck 20.6878 5.61145 -4.19541
head 5.36978 2.46819 -1.12846
rclavicle 6.36111e-015 7.4743e-014
rhumerus -1.83271 4.69701 -97.6616
rradius 16.9418
rwrist 19.5221
rhand -13.8272 16.5495
rfingers 7.12502
rthumb 12.2958 -13.069
lclavicle 6.36111e-015 7.4743e-014
lhumerus -22.9019 9.73318 81.1953
lradius 48.2789
lwrist -4.26856
lhand -12.8071 -7.60176
lfingers 7.12502
lthumb 13.2791 21.9552
rfemur -19.3929 -18.945 16.0487
rtibia 56.8413
rfoot -9.07327 -353.577
rtoes -13.8123
lfemur -19.7524 3.63453 -20.5467
ltibia 44.1023
lfoot -12.224 -9.3583
ltoes -3.77131
51
root 1.77763 17.2502 -16.7028 350.599 3.39896 -1.13338
lowerback 30.8307 1.69441 -3.09745
upperback 12.1902 1.07227 -3.92102
thorax -3.05303 0.567099 -2.9137
lowerneck 6.05897 3.54222 -0.276375
upperneck 20.5485 5.45805 -4.06715
head 5.32602 2.4015 -1.08465
rclavicle -4.77083e-015 -3.49861e-014
rhumerus -1.59337 4.97925 -97.6537
rradius 17.011
rwrist 19.2252
rhand -14.0283 16.4966
rfingers 7.12502
rthumb 12.1018 -13.1334
lclavicle -4.77083e-015 -3.49861e-014
lhumerus -22.5453 8.54188 81.3434
lradius 50.0872
lwrist -3.27068
lhand -12.6574 -7.87386
lfingers 7.12502
lthumb 13.4234 21.6736
rfemur -19.5308 -18.9266 16.1478
rtibia 55.6325
rfoot -9.64513 -354.305
rtoes -14.1168
lfemur -19.84 3.78451 -20.5922
ltibia 44.3031
lfoot -12.2792 -9.91277
ltoes -3.67373
52
root 1.76026 17.2498 -16.6497 350.676 3.83343 -1.09234
lowerback 31.142 1.73318 -3.12027
upperback 12.3742 1.11331 -3.91847
thorax -2.9792 0.590336 -2.9181
lowerneck 5.88032 3.444 -0.412872
upperneck 20.4832 5.29914 -3.87819
head 5.32269 2.32585 -1.00358
rclavicle -3.18055e-014 0
rhumerus -1.31575 5.21771 -97.5905
rradius 17.0866
rwrist 18.9547
rhand -14.1809 16.4546
rfingers 7.12502
rthumb 11.9547 -13.184
lclavicle -3.18055e-014 0
lhumerus -22.1285 7.42452 81.5234
lradius 51.8371
lwrist -2.42925
lhand -12.5967 -8.13451
lfingers 7.12502
lthumb 13.482 21.4091
rfemur -19.6131 -18.8931 16.2505
rtibia 54.4574
rfoot -10.1241 -354.942
rtoes -14.1327
lfemur -19.9148 3.90263 -20.6107
ltibia 44.5086
lfoot -12.3352 -10.4666
ltoes -3.54957
53
root 1.74167 17.2477 -16.5999 350.766 4.2814 -1.05284
lowerback 31.485 1.77073 -3.12709
upperback 12.5387 1.1545 -3.919
thorax -2.94013 0.614532 -2.93678
lowerneck 5.70984 3.33241 -0.510623
upperneck 20.4119 5.1265 -3.71244
head 5.31777 2.24552 -0.937004
rclavicle -1.03368e-014 -1.11319e-014
rhumerus -1.01832 5.29953 -97.5448
rradius 17.0933
rwrist 18.7979
rhand -14.3882 16.4301
rfingers 7.12502
rthumb 11.7547 -13.2201
lclavicle -1.03368e-014 -1.11319e-014
lhumerus -21.779 6.375 81.6869
lradius 53.6302
lwrist -1.64127
lhand -12.5304 -8.39327
lfingers 7.12502
lthumb 13.5458 21.1461
rfemur -19.657 -18.7844 16.3362
rtibia 53.3152
rfoot -10.562 -355.553
rtoes -13.7506
lfemur -20.0443 4.06309 -20.6278
ltibia 44.7358
lfoot -12.3462 -11.0356
ltoes -3.52658
